<mxfile host="app.diagrams.net" modified="2022-04-28T13:19:25.505Z" agent="5.0 (Windows NT 10.0; Win64; x64) AppleWebKit/537.36 (KHTML, like Gecko) Chrome/101.0.4951.41 Safari/537.36" etag="IFDNDah-dus3ExHQJrme" version="17.4.6" type="github">
  <diagram id="xsRfrzSp_q1T855Q-vbv" name="Page-1">
    <mxGraphModel dx="782" dy="649" grid="1" gridSize="10" guides="1" tooltips="1" connect="1" arrows="1" fold="1" page="1" pageScale="1" pageWidth="827" pageHeight="1169" math="0" shadow="0">
      <root>
        <mxCell id="0" />
        <mxCell id="1" parent="0" />
        <mxCell id="YNfdYXe8y2e8E_s2l16x-288" value="Профиль" style="shape=table;startSize=30;container=1;collapsible=1;childLayout=tableLayout;fixedRows=1;rowLines=0;fontStyle=1;align=center;resizeLast=1;" parent="1" vertex="1">
          <mxGeometry x="990" y="670" width="180" height="150" as="geometry" />
        </mxCell>
        <mxCell id="YNfdYXe8y2e8E_s2l16x-289" value="" style="shape=tableRow;horizontal=0;startSize=0;swimlaneHead=0;swimlaneBody=0;fillColor=none;collapsible=0;dropTarget=0;points=[[0,0.5],[1,0.5]];portConstraint=eastwest;top=0;left=0;right=0;bottom=1;" parent="YNfdYXe8y2e8E_s2l16x-288" vertex="1">
          <mxGeometry y="30" width="180" height="30" as="geometry" />
        </mxCell>
        <mxCell id="YNfdYXe8y2e8E_s2l16x-290" value="(PK)" style="shape=partialRectangle;connectable=0;fillColor=none;top=0;left=0;bottom=0;right=0;fontStyle=1;overflow=hidden;" parent="YNfdYXe8y2e8E_s2l16x-289" vertex="1">
          <mxGeometry width="30" height="30" as="geometry">
            <mxRectangle width="30" height="30" as="alternateBounds" />
          </mxGeometry>
        </mxCell>
        <mxCell id="YNfdYXe8y2e8E_s2l16x-291" value="ID_Профиля" style="shape=partialRectangle;connectable=0;fillColor=none;top=0;left=0;bottom=0;right=0;align=left;spacingLeft=6;fontStyle=5;overflow=hidden;" parent="YNfdYXe8y2e8E_s2l16x-289" vertex="1">
          <mxGeometry x="30" width="150" height="30" as="geometry">
            <mxRectangle width="150" height="30" as="alternateBounds" />
          </mxGeometry>
        </mxCell>
        <mxCell id="YNfdYXe8y2e8E_s2l16x-292" style="shape=tableRow;horizontal=0;startSize=0;swimlaneHead=0;swimlaneBody=0;fillColor=none;collapsible=0;dropTarget=0;points=[[0,0.5],[1,0.5]];portConstraint=eastwest;top=0;left=0;right=0;bottom=1;" parent="YNfdYXe8y2e8E_s2l16x-288" vertex="1">
          <mxGeometry y="60" width="180" height="30" as="geometry" />
        </mxCell>
        <mxCell id="YNfdYXe8y2e8E_s2l16x-293" value="(FK)" style="shape=partialRectangle;connectable=0;fillColor=none;top=0;left=0;bottom=0;right=0;fontStyle=1;overflow=hidden;" parent="YNfdYXe8y2e8E_s2l16x-292" vertex="1">
          <mxGeometry width="30" height="30" as="geometry">
            <mxRectangle width="30" height="30" as="alternateBounds" />
          </mxGeometry>
        </mxCell>
        <mxCell id="YNfdYXe8y2e8E_s2l16x-294" value="ID_Специальность" style="shape=partialRectangle;connectable=0;fillColor=none;top=0;left=0;bottom=0;right=0;align=left;spacingLeft=6;fontStyle=0;overflow=hidden;" parent="YNfdYXe8y2e8E_s2l16x-292" vertex="1">
          <mxGeometry x="30" width="150" height="30" as="geometry">
            <mxRectangle width="150" height="30" as="alternateBounds" />
          </mxGeometry>
        </mxCell>
        <mxCell id="YNfdYXe8y2e8E_s2l16x-295" style="shape=tableRow;horizontal=0;startSize=0;swimlaneHead=0;swimlaneBody=0;fillColor=none;collapsible=0;dropTarget=0;points=[[0,0.5],[1,0.5]];portConstraint=eastwest;top=0;left=0;right=0;bottom=1;" parent="YNfdYXe8y2e8E_s2l16x-288" vertex="1">
          <mxGeometry y="90" width="180" height="30" as="geometry" />
        </mxCell>
        <mxCell id="YNfdYXe8y2e8E_s2l16x-296" value="(FK)" style="shape=partialRectangle;connectable=0;fillColor=none;top=0;left=0;bottom=0;right=0;fontStyle=1;overflow=hidden;" parent="YNfdYXe8y2e8E_s2l16x-295" vertex="1">
          <mxGeometry width="30" height="30" as="geometry">
            <mxRectangle width="30" height="30" as="alternateBounds" />
          </mxGeometry>
        </mxCell>
        <mxCell id="YNfdYXe8y2e8E_s2l16x-297" value="ID_Факультет" style="shape=partialRectangle;connectable=0;fillColor=none;top=0;left=0;bottom=0;right=0;align=left;spacingLeft=6;fontStyle=0;overflow=hidden;" parent="YNfdYXe8y2e8E_s2l16x-295" vertex="1">
          <mxGeometry x="30" width="150" height="30" as="geometry">
            <mxRectangle width="150" height="30" as="alternateBounds" />
          </mxGeometry>
        </mxCell>
        <mxCell id="YNfdYXe8y2e8E_s2l16x-298" value="" style="shape=tableRow;horizontal=0;startSize=0;swimlaneHead=0;swimlaneBody=0;fillColor=none;collapsible=0;dropTarget=0;points=[[0,0.5],[1,0.5]];portConstraint=eastwest;top=0;left=0;right=0;bottom=0;" parent="YNfdYXe8y2e8E_s2l16x-288" vertex="1">
          <mxGeometry y="120" width="180" height="30" as="geometry" />
        </mxCell>
        <mxCell id="YNfdYXe8y2e8E_s2l16x-299" value="" style="shape=partialRectangle;connectable=0;fillColor=none;top=0;left=0;bottom=0;right=0;editable=1;overflow=hidden;" parent="YNfdYXe8y2e8E_s2l16x-298" vertex="1">
          <mxGeometry width="30" height="30" as="geometry">
            <mxRectangle width="30" height="30" as="alternateBounds" />
          </mxGeometry>
        </mxCell>
        <mxCell id="YNfdYXe8y2e8E_s2l16x-300" value="название" style="shape=partialRectangle;connectable=0;fillColor=none;top=0;left=0;bottom=0;right=0;align=left;spacingLeft=6;overflow=hidden;" parent="YNfdYXe8y2e8E_s2l16x-298" vertex="1">
          <mxGeometry x="30" width="150" height="30" as="geometry">
            <mxRectangle width="150" height="30" as="alternateBounds" />
          </mxGeometry>
        </mxCell>
        <mxCell id="YNfdYXe8y2e8E_s2l16x-301" value="Факультет" style="shape=table;startSize=30;container=1;collapsible=1;childLayout=tableLayout;fixedRows=1;rowLines=0;fontStyle=1;align=center;resizeLast=1;" parent="1" vertex="1">
          <mxGeometry x="1220" y="760" width="180" height="90" as="geometry" />
        </mxCell>
        <mxCell id="YNfdYXe8y2e8E_s2l16x-302" value="" style="shape=tableRow;horizontal=0;startSize=0;swimlaneHead=0;swimlaneBody=0;fillColor=none;collapsible=0;dropTarget=0;points=[[0,0.5],[1,0.5]];portConstraint=eastwest;top=0;left=0;right=0;bottom=1;" parent="YNfdYXe8y2e8E_s2l16x-301" vertex="1">
          <mxGeometry y="30" width="180" height="30" as="geometry" />
        </mxCell>
        <mxCell id="YNfdYXe8y2e8E_s2l16x-303" value="PK" style="shape=partialRectangle;connectable=0;fillColor=none;top=0;left=0;bottom=0;right=0;fontStyle=1;overflow=hidden;" parent="YNfdYXe8y2e8E_s2l16x-302" vertex="1">
          <mxGeometry width="30" height="30" as="geometry">
            <mxRectangle width="30" height="30" as="alternateBounds" />
          </mxGeometry>
        </mxCell>
        <mxCell id="YNfdYXe8y2e8E_s2l16x-304" value="ID" style="shape=partialRectangle;connectable=0;fillColor=none;top=0;left=0;bottom=0;right=0;align=left;spacingLeft=6;fontStyle=5;overflow=hidden;" parent="YNfdYXe8y2e8E_s2l16x-302" vertex="1">
          <mxGeometry x="30" width="150" height="30" as="geometry">
            <mxRectangle width="150" height="30" as="alternateBounds" />
          </mxGeometry>
        </mxCell>
        <mxCell id="YNfdYXe8y2e8E_s2l16x-305" value="" style="shape=tableRow;horizontal=0;startSize=0;swimlaneHead=0;swimlaneBody=0;fillColor=none;collapsible=0;dropTarget=0;points=[[0,0.5],[1,0.5]];portConstraint=eastwest;top=0;left=0;right=0;bottom=0;" parent="YNfdYXe8y2e8E_s2l16x-301" vertex="1">
          <mxGeometry y="60" width="180" height="30" as="geometry" />
        </mxCell>
        <mxCell id="YNfdYXe8y2e8E_s2l16x-306" value="" style="shape=partialRectangle;connectable=0;fillColor=none;top=0;left=0;bottom=0;right=0;editable=1;overflow=hidden;" parent="YNfdYXe8y2e8E_s2l16x-305" vertex="1">
          <mxGeometry width="30" height="30" as="geometry">
            <mxRectangle width="30" height="30" as="alternateBounds" />
          </mxGeometry>
        </mxCell>
        <mxCell id="YNfdYXe8y2e8E_s2l16x-307" value="название" style="shape=partialRectangle;connectable=0;fillColor=none;top=0;left=0;bottom=0;right=0;align=left;spacingLeft=6;overflow=hidden;" parent="YNfdYXe8y2e8E_s2l16x-305" vertex="1">
          <mxGeometry x="30" width="150" height="30" as="geometry">
            <mxRectangle width="150" height="30" as="alternateBounds" />
          </mxGeometry>
        </mxCell>
        <mxCell id="YNfdYXe8y2e8E_s2l16x-315" value="Специальность" style="shape=table;startSize=30;container=1;collapsible=1;childLayout=tableLayout;fixedRows=1;rowLines=0;fontStyle=1;align=center;resizeLast=1;" parent="1" vertex="1">
          <mxGeometry x="1220" y="650" width="180" height="90" as="geometry" />
        </mxCell>
        <mxCell id="YNfdYXe8y2e8E_s2l16x-316" value="" style="shape=tableRow;horizontal=0;startSize=0;swimlaneHead=0;swimlaneBody=0;fillColor=none;collapsible=0;dropTarget=0;points=[[0,0.5],[1,0.5]];portConstraint=eastwest;top=0;left=0;right=0;bottom=1;" parent="YNfdYXe8y2e8E_s2l16x-315" vertex="1">
          <mxGeometry y="30" width="180" height="30" as="geometry" />
        </mxCell>
        <mxCell id="YNfdYXe8y2e8E_s2l16x-317" value="PK" style="shape=partialRectangle;connectable=0;fillColor=none;top=0;left=0;bottom=0;right=0;fontStyle=1;overflow=hidden;" parent="YNfdYXe8y2e8E_s2l16x-316" vertex="1">
          <mxGeometry width="30" height="30" as="geometry">
            <mxRectangle width="30" height="30" as="alternateBounds" />
          </mxGeometry>
        </mxCell>
        <mxCell id="YNfdYXe8y2e8E_s2l16x-318" value="ID" style="shape=partialRectangle;connectable=0;fillColor=none;top=0;left=0;bottom=0;right=0;align=left;spacingLeft=6;fontStyle=5;overflow=hidden;" parent="YNfdYXe8y2e8E_s2l16x-316" vertex="1">
          <mxGeometry x="30" width="150" height="30" as="geometry">
            <mxRectangle width="150" height="30" as="alternateBounds" />
          </mxGeometry>
        </mxCell>
        <mxCell id="YNfdYXe8y2e8E_s2l16x-319" value="" style="shape=tableRow;horizontal=0;startSize=0;swimlaneHead=0;swimlaneBody=0;fillColor=none;collapsible=0;dropTarget=0;points=[[0,0.5],[1,0.5]];portConstraint=eastwest;top=0;left=0;right=0;bottom=0;" parent="YNfdYXe8y2e8E_s2l16x-315" vertex="1">
          <mxGeometry y="60" width="180" height="30" as="geometry" />
        </mxCell>
        <mxCell id="YNfdYXe8y2e8E_s2l16x-320" value="" style="shape=partialRectangle;connectable=0;fillColor=none;top=0;left=0;bottom=0;right=0;editable=1;overflow=hidden;" parent="YNfdYXe8y2e8E_s2l16x-319" vertex="1">
          <mxGeometry width="30" height="30" as="geometry">
            <mxRectangle width="30" height="30" as="alternateBounds" />
          </mxGeometry>
        </mxCell>
        <mxCell id="YNfdYXe8y2e8E_s2l16x-321" value="название" style="shape=partialRectangle;connectable=0;fillColor=none;top=0;left=0;bottom=0;right=0;align=left;spacingLeft=6;overflow=hidden;" parent="YNfdYXe8y2e8E_s2l16x-319" vertex="1">
          <mxGeometry x="30" width="150" height="30" as="geometry">
            <mxRectangle width="150" height="30" as="alternateBounds" />
          </mxGeometry>
        </mxCell>
        <mxCell id="YNfdYXe8y2e8E_s2l16x-324" value="" style="endArrow=oval;html=1;rounded=0;exitX=-0.011;exitY=-0.167;exitDx=0;exitDy=0;exitPerimeter=0;endFill=1;entryX=1;entryY=0.5;entryDx=0;entryDy=0;dashed=1;" parent="1" edge="1">
          <mxGeometry relative="1" as="geometry">
            <mxPoint x="1220" y="699.99" as="sourcePoint" />
            <mxPoint x="1171.98" y="740" as="targetPoint" />
            <Array as="points">
              <mxPoint x="1201.98" y="700" />
              <mxPoint x="1201.98" y="720" />
              <mxPoint x="1201.98" y="740" />
            </Array>
          </mxGeometry>
        </mxCell>
        <mxCell id="YNfdYXe8y2e8E_s2l16x-325" value="N" style="resizable=0;html=1;align=right;verticalAlign=bottom;" parent="YNfdYXe8y2e8E_s2l16x-324" connectable="0" vertex="1">
          <mxGeometry x="1" relative="1" as="geometry">
            <mxPoint x="10" as="offset" />
          </mxGeometry>
        </mxCell>
        <mxCell id="YNfdYXe8y2e8E_s2l16x-326" value="" style="endArrow=oval;html=1;rounded=0;entryX=1;entryY=0.5;entryDx=0;entryDy=0;endFill=1;exitX=0;exitY=0.5;exitDx=0;exitDy=0;dashed=1;" parent="1" source="YNfdYXe8y2e8E_s2l16x-302" target="YNfdYXe8y2e8E_s2l16x-295" edge="1">
          <mxGeometry relative="1" as="geometry">
            <mxPoint x="1240" y="850" as="sourcePoint" />
            <mxPoint x="1110" y="700" as="targetPoint" />
            <Array as="points">
              <mxPoint x="1200" y="805" />
              <mxPoint x="1200" y="775" />
            </Array>
          </mxGeometry>
        </mxCell>
        <mxCell id="YNfdYXe8y2e8E_s2l16x-327" value="N" style="resizable=0;html=1;align=right;verticalAlign=bottom;" parent="YNfdYXe8y2e8E_s2l16x-326" connectable="0" vertex="1">
          <mxGeometry x="1" relative="1" as="geometry">
            <mxPoint x="14" y="20" as="offset" />
          </mxGeometry>
        </mxCell>
        <mxCell id="YNfdYXe8y2e8E_s2l16x-328" value="Учебный план" style="shape=table;startSize=30;container=1;collapsible=1;childLayout=tableLayout;fixedRows=1;rowLines=0;fontStyle=1;align=center;resizeLast=1;" parent="1" vertex="1">
          <mxGeometry x="720" y="640" width="180" height="150" as="geometry" />
        </mxCell>
        <mxCell id="YNfdYXe8y2e8E_s2l16x-329" value="" style="shape=tableRow;horizontal=0;startSize=0;swimlaneHead=0;swimlaneBody=0;fillColor=none;collapsible=0;dropTarget=0;points=[[0,0.5],[1,0.5]];portConstraint=eastwest;top=0;left=0;right=0;bottom=1;" parent="YNfdYXe8y2e8E_s2l16x-328" vertex="1">
          <mxGeometry y="30" width="180" height="30" as="geometry" />
        </mxCell>
        <mxCell id="YNfdYXe8y2e8E_s2l16x-330" value="PK" style="shape=partialRectangle;connectable=0;fillColor=none;top=0;left=0;bottom=0;right=0;fontStyle=1;overflow=hidden;" parent="YNfdYXe8y2e8E_s2l16x-329" vertex="1">
          <mxGeometry width="30" height="30" as="geometry">
            <mxRectangle width="30" height="30" as="alternateBounds" />
          </mxGeometry>
        </mxCell>
        <mxCell id="YNfdYXe8y2e8E_s2l16x-331" value="ID" style="shape=partialRectangle;connectable=0;fillColor=none;top=0;left=0;bottom=0;right=0;align=left;spacingLeft=6;fontStyle=5;overflow=hidden;" parent="YNfdYXe8y2e8E_s2l16x-329" vertex="1">
          <mxGeometry x="30" width="150" height="30" as="geometry">
            <mxRectangle width="150" height="30" as="alternateBounds" />
          </mxGeometry>
        </mxCell>
        <mxCell id="YNfdYXe8y2e8E_s2l16x-332" value="" style="shape=tableRow;horizontal=0;startSize=0;swimlaneHead=0;swimlaneBody=0;fillColor=none;collapsible=0;dropTarget=0;points=[[0,0.5],[1,0.5]];portConstraint=eastwest;top=0;left=0;right=0;bottom=0;" parent="YNfdYXe8y2e8E_s2l16x-328" vertex="1">
          <mxGeometry y="60" width="180" height="30" as="geometry" />
        </mxCell>
        <mxCell id="YNfdYXe8y2e8E_s2l16x-333" value="" style="shape=partialRectangle;connectable=0;fillColor=none;top=0;left=0;bottom=0;right=0;editable=1;overflow=hidden;" parent="YNfdYXe8y2e8E_s2l16x-332" vertex="1">
          <mxGeometry width="30" height="30" as="geometry">
            <mxRectangle width="30" height="30" as="alternateBounds" />
          </mxGeometry>
        </mxCell>
        <mxCell id="YNfdYXe8y2e8E_s2l16x-334" value="название" style="shape=partialRectangle;connectable=0;fillColor=none;top=0;left=0;bottom=0;right=0;align=left;spacingLeft=6;overflow=hidden;" parent="YNfdYXe8y2e8E_s2l16x-332" vertex="1">
          <mxGeometry x="30" width="150" height="30" as="geometry">
            <mxRectangle width="150" height="30" as="alternateBounds" />
          </mxGeometry>
        </mxCell>
        <mxCell id="YNfdYXe8y2e8E_s2l16x-335" value="" style="shape=tableRow;horizontal=0;startSize=0;swimlaneHead=0;swimlaneBody=0;fillColor=none;collapsible=0;dropTarget=0;points=[[0,0.5],[1,0.5]];portConstraint=eastwest;top=0;left=0;right=0;bottom=0;" parent="YNfdYXe8y2e8E_s2l16x-328" vertex="1">
          <mxGeometry y="90" width="180" height="30" as="geometry" />
        </mxCell>
        <mxCell id="YNfdYXe8y2e8E_s2l16x-336" value="" style="shape=partialRectangle;connectable=0;fillColor=none;top=0;left=0;bottom=0;right=0;editable=1;overflow=hidden;" parent="YNfdYXe8y2e8E_s2l16x-335" vertex="1">
          <mxGeometry width="30" height="30" as="geometry">
            <mxRectangle width="30" height="30" as="alternateBounds" />
          </mxGeometry>
        </mxCell>
        <mxCell id="YNfdYXe8y2e8E_s2l16x-337" value="год" style="shape=partialRectangle;connectable=0;fillColor=none;top=0;left=0;bottom=0;right=0;align=left;spacingLeft=6;overflow=hidden;" parent="YNfdYXe8y2e8E_s2l16x-335" vertex="1">
          <mxGeometry x="30" width="150" height="30" as="geometry">
            <mxRectangle width="150" height="30" as="alternateBounds" />
          </mxGeometry>
        </mxCell>
        <mxCell id="YNfdYXe8y2e8E_s2l16x-338" value="" style="shape=tableRow;horizontal=0;startSize=0;swimlaneHead=0;swimlaneBody=0;fillColor=none;collapsible=0;dropTarget=0;points=[[0,0.5],[1,0.5]];portConstraint=eastwest;top=0;left=0;right=0;bottom=0;" parent="YNfdYXe8y2e8E_s2l16x-328" vertex="1">
          <mxGeometry y="120" width="180" height="30" as="geometry" />
        </mxCell>
        <mxCell id="YNfdYXe8y2e8E_s2l16x-339" value="(FK)" style="shape=partialRectangle;connectable=0;fillColor=none;top=0;left=0;bottom=0;right=0;editable=1;overflow=hidden;" parent="YNfdYXe8y2e8E_s2l16x-338" vertex="1">
          <mxGeometry width="30" height="30" as="geometry">
            <mxRectangle width="30" height="30" as="alternateBounds" />
          </mxGeometry>
        </mxCell>
        <mxCell id="YNfdYXe8y2e8E_s2l16x-340" value="ID_Профиля" style="shape=partialRectangle;connectable=0;fillColor=none;top=0;left=0;bottom=0;right=0;align=left;spacingLeft=6;overflow=hidden;" parent="YNfdYXe8y2e8E_s2l16x-338" vertex="1">
          <mxGeometry x="30" width="150" height="30" as="geometry">
            <mxRectangle width="150" height="30" as="alternateBounds" />
          </mxGeometry>
        </mxCell>
        <mxCell id="YNfdYXe8y2e8E_s2l16x-347" value="" style="endArrow=oval;html=1;rounded=0;dashed=1;startArrow=none;startFill=0;endFill=1;" parent="1" edge="1">
          <mxGeometry relative="1" as="geometry">
            <mxPoint x="983" y="750" as="sourcePoint" />
            <mxPoint x="903" y="750" as="targetPoint" />
          </mxGeometry>
        </mxCell>
        <mxCell id="YNfdYXe8y2e8E_s2l16x-348" value="N" style="resizable=0;html=1;align=right;verticalAlign=bottom;" parent="YNfdYXe8y2e8E_s2l16x-347" connectable="0" vertex="1">
          <mxGeometry x="1" relative="1" as="geometry">
            <mxPoint x="20" y="-5" as="offset" />
          </mxGeometry>
        </mxCell>
        <mxCell id="YNfdYXe8y2e8E_s2l16x-349" value="Учебный план предмета" style="shape=table;startSize=30;container=1;collapsible=1;childLayout=tableLayout;fixedRows=1;rowLines=0;fontStyle=1;align=center;resizeLast=1;" parent="1" vertex="1">
          <mxGeometry x="453" y="640" width="180" height="210" as="geometry" />
        </mxCell>
        <mxCell id="YNfdYXe8y2e8E_s2l16x-350" value="" style="shape=tableRow;horizontal=0;startSize=0;swimlaneHead=0;swimlaneBody=0;fillColor=none;collapsible=0;dropTarget=0;points=[[0,0.5],[1,0.5]];portConstraint=eastwest;top=0;left=0;right=0;bottom=1;" parent="YNfdYXe8y2e8E_s2l16x-349" vertex="1">
          <mxGeometry y="30" width="180" height="30" as="geometry" />
        </mxCell>
        <mxCell id="YNfdYXe8y2e8E_s2l16x-351" value="PK" style="shape=partialRectangle;connectable=0;fillColor=none;top=0;left=0;bottom=0;right=0;fontStyle=1;overflow=hidden;" parent="YNfdYXe8y2e8E_s2l16x-350" vertex="1">
          <mxGeometry width="30" height="30" as="geometry">
            <mxRectangle width="30" height="30" as="alternateBounds" />
          </mxGeometry>
        </mxCell>
        <mxCell id="YNfdYXe8y2e8E_s2l16x-352" value="ID" style="shape=partialRectangle;connectable=0;fillColor=none;top=0;left=0;bottom=0;right=0;align=left;spacingLeft=6;fontStyle=5;overflow=hidden;" parent="YNfdYXe8y2e8E_s2l16x-350" vertex="1">
          <mxGeometry x="30" width="150" height="30" as="geometry">
            <mxRectangle width="150" height="30" as="alternateBounds" />
          </mxGeometry>
        </mxCell>
        <mxCell id="YNfdYXe8y2e8E_s2l16x-353" value="" style="shape=tableRow;horizontal=0;startSize=0;swimlaneHead=0;swimlaneBody=0;fillColor=none;collapsible=0;dropTarget=0;points=[[0,0.5],[1,0.5]];portConstraint=eastwest;top=0;left=0;right=0;bottom=0;" parent="YNfdYXe8y2e8E_s2l16x-349" vertex="1">
          <mxGeometry y="60" width="180" height="30" as="geometry" />
        </mxCell>
        <mxCell id="YNfdYXe8y2e8E_s2l16x-354" value="" style="shape=partialRectangle;connectable=0;fillColor=none;top=0;left=0;bottom=0;right=0;editable=1;overflow=hidden;" parent="YNfdYXe8y2e8E_s2l16x-353" vertex="1">
          <mxGeometry width="30" height="30" as="geometry">
            <mxRectangle width="30" height="30" as="alternateBounds" />
          </mxGeometry>
        </mxCell>
        <mxCell id="YNfdYXe8y2e8E_s2l16x-355" value="кол-во часов" style="shape=partialRectangle;connectable=0;fillColor=none;top=0;left=0;bottom=0;right=0;align=left;spacingLeft=6;overflow=hidden;" parent="YNfdYXe8y2e8E_s2l16x-353" vertex="1">
          <mxGeometry x="30" width="150" height="30" as="geometry">
            <mxRectangle width="150" height="30" as="alternateBounds" />
          </mxGeometry>
        </mxCell>
        <mxCell id="YNfdYXe8y2e8E_s2l16x-356" value="" style="shape=tableRow;horizontal=0;startSize=0;swimlaneHead=0;swimlaneBody=0;fillColor=none;collapsible=0;dropTarget=0;points=[[0,0.5],[1,0.5]];portConstraint=eastwest;top=0;left=0;right=0;bottom=0;" parent="YNfdYXe8y2e8E_s2l16x-349" vertex="1">
          <mxGeometry y="90" width="180" height="30" as="geometry" />
        </mxCell>
        <mxCell id="YNfdYXe8y2e8E_s2l16x-357" value="" style="shape=partialRectangle;connectable=0;fillColor=none;top=0;left=0;bottom=0;right=0;editable=1;overflow=hidden;" parent="YNfdYXe8y2e8E_s2l16x-356" vertex="1">
          <mxGeometry width="30" height="30" as="geometry">
            <mxRectangle width="30" height="30" as="alternateBounds" />
          </mxGeometry>
        </mxCell>
        <mxCell id="YNfdYXe8y2e8E_s2l16x-358" value="семестр" style="shape=partialRectangle;connectable=0;fillColor=none;top=0;left=0;bottom=0;right=0;align=left;spacingLeft=6;overflow=hidden;" parent="YNfdYXe8y2e8E_s2l16x-356" vertex="1">
          <mxGeometry x="30" width="150" height="30" as="geometry">
            <mxRectangle width="150" height="30" as="alternateBounds" />
          </mxGeometry>
        </mxCell>
        <mxCell id="YNfdYXe8y2e8E_s2l16x-359" value="" style="shape=tableRow;horizontal=0;startSize=0;swimlaneHead=0;swimlaneBody=0;fillColor=none;collapsible=0;dropTarget=0;points=[[0,0.5],[1,0.5]];portConstraint=eastwest;top=0;left=0;right=0;bottom=0;" parent="YNfdYXe8y2e8E_s2l16x-349" vertex="1">
          <mxGeometry y="120" width="180" height="30" as="geometry" />
        </mxCell>
        <mxCell id="YNfdYXe8y2e8E_s2l16x-360" value="(FK)" style="shape=partialRectangle;connectable=0;fillColor=none;top=0;left=0;bottom=0;right=0;editable=1;overflow=hidden;" parent="YNfdYXe8y2e8E_s2l16x-359" vertex="1">
          <mxGeometry width="30" height="30" as="geometry">
            <mxRectangle width="30" height="30" as="alternateBounds" />
          </mxGeometry>
        </mxCell>
        <mxCell id="YNfdYXe8y2e8E_s2l16x-361" value="ID_УчебныйПлан" style="shape=partialRectangle;connectable=0;fillColor=none;top=0;left=0;bottom=0;right=0;align=left;spacingLeft=6;overflow=hidden;" parent="YNfdYXe8y2e8E_s2l16x-359" vertex="1">
          <mxGeometry x="30" width="150" height="30" as="geometry">
            <mxRectangle width="150" height="30" as="alternateBounds" />
          </mxGeometry>
        </mxCell>
        <mxCell id="YNfdYXe8y2e8E_s2l16x-362" style="shape=tableRow;horizontal=0;startSize=0;swimlaneHead=0;swimlaneBody=0;fillColor=none;collapsible=0;dropTarget=0;points=[[0,0.5],[1,0.5]];portConstraint=eastwest;top=0;left=0;right=0;bottom=0;" parent="YNfdYXe8y2e8E_s2l16x-349" vertex="1">
          <mxGeometry y="150" width="180" height="30" as="geometry" />
        </mxCell>
        <mxCell id="YNfdYXe8y2e8E_s2l16x-363" value="(FK)" style="shape=partialRectangle;connectable=0;fillColor=none;top=0;left=0;bottom=0;right=0;editable=1;overflow=hidden;" parent="YNfdYXe8y2e8E_s2l16x-362" vertex="1">
          <mxGeometry width="30" height="30" as="geometry">
            <mxRectangle width="30" height="30" as="alternateBounds" />
          </mxGeometry>
        </mxCell>
        <mxCell id="YNfdYXe8y2e8E_s2l16x-364" value="ID_Предмет" style="shape=partialRectangle;connectable=0;fillColor=none;top=0;left=0;bottom=0;right=0;align=left;spacingLeft=6;overflow=hidden;" parent="YNfdYXe8y2e8E_s2l16x-362" vertex="1">
          <mxGeometry x="30" width="150" height="30" as="geometry">
            <mxRectangle width="150" height="30" as="alternateBounds" />
          </mxGeometry>
        </mxCell>
        <mxCell id="YNfdYXe8y2e8E_s2l16x-365" style="shape=tableRow;horizontal=0;startSize=0;swimlaneHead=0;swimlaneBody=0;fillColor=none;collapsible=0;dropTarget=0;points=[[0,0.5],[1,0.5]];portConstraint=eastwest;top=0;left=0;right=0;bottom=0;" parent="YNfdYXe8y2e8E_s2l16x-349" vertex="1">
          <mxGeometry y="180" width="180" height="30" as="geometry" />
        </mxCell>
        <mxCell id="YNfdYXe8y2e8E_s2l16x-366" value="(FK)" style="shape=partialRectangle;connectable=0;fillColor=none;top=0;left=0;bottom=0;right=0;editable=1;overflow=hidden;" parent="YNfdYXe8y2e8E_s2l16x-365" vertex="1">
          <mxGeometry width="30" height="30" as="geometry">
            <mxRectangle width="30" height="30" as="alternateBounds" />
          </mxGeometry>
        </mxCell>
        <mxCell id="YNfdYXe8y2e8E_s2l16x-367" value="ID_ТипЗанятия" style="shape=partialRectangle;connectable=0;fillColor=none;top=0;left=0;bottom=0;right=0;align=left;spacingLeft=6;overflow=hidden;" parent="YNfdYXe8y2e8E_s2l16x-365" vertex="1">
          <mxGeometry x="30" width="150" height="30" as="geometry">
            <mxRectangle width="150" height="30" as="alternateBounds" />
          </mxGeometry>
        </mxCell>
        <mxCell id="YNfdYXe8y2e8E_s2l16x-368" value="Предмет" style="shape=table;startSize=30;container=1;collapsible=1;childLayout=tableLayout;fixedRows=1;rowLines=0;fontStyle=1;align=center;resizeLast=1;" parent="1" vertex="1">
          <mxGeometry x="180" y="610" width="180" height="90" as="geometry" />
        </mxCell>
        <mxCell id="YNfdYXe8y2e8E_s2l16x-369" value="" style="shape=tableRow;horizontal=0;startSize=0;swimlaneHead=0;swimlaneBody=0;fillColor=none;collapsible=0;dropTarget=0;points=[[0,0.5],[1,0.5]];portConstraint=eastwest;top=0;left=0;right=0;bottom=1;" parent="YNfdYXe8y2e8E_s2l16x-368" vertex="1">
          <mxGeometry y="30" width="180" height="30" as="geometry" />
        </mxCell>
        <mxCell id="YNfdYXe8y2e8E_s2l16x-370" value="PK" style="shape=partialRectangle;connectable=0;fillColor=none;top=0;left=0;bottom=0;right=0;fontStyle=1;overflow=hidden;" parent="YNfdYXe8y2e8E_s2l16x-369" vertex="1">
          <mxGeometry width="30" height="30" as="geometry">
            <mxRectangle width="30" height="30" as="alternateBounds" />
          </mxGeometry>
        </mxCell>
        <mxCell id="YNfdYXe8y2e8E_s2l16x-371" value="ID" style="shape=partialRectangle;connectable=0;fillColor=none;top=0;left=0;bottom=0;right=0;align=left;spacingLeft=6;fontStyle=5;overflow=hidden;" parent="YNfdYXe8y2e8E_s2l16x-369" vertex="1">
          <mxGeometry x="30" width="150" height="30" as="geometry">
            <mxRectangle width="150" height="30" as="alternateBounds" />
          </mxGeometry>
        </mxCell>
        <mxCell id="YNfdYXe8y2e8E_s2l16x-372" value="" style="shape=tableRow;horizontal=0;startSize=0;swimlaneHead=0;swimlaneBody=0;fillColor=none;collapsible=0;dropTarget=0;points=[[0,0.5],[1,0.5]];portConstraint=eastwest;top=0;left=0;right=0;bottom=0;" parent="YNfdYXe8y2e8E_s2l16x-368" vertex="1">
          <mxGeometry y="60" width="180" height="30" as="geometry" />
        </mxCell>
        <mxCell id="YNfdYXe8y2e8E_s2l16x-373" value="" style="shape=partialRectangle;connectable=0;fillColor=none;top=0;left=0;bottom=0;right=0;editable=1;overflow=hidden;" parent="YNfdYXe8y2e8E_s2l16x-372" vertex="1">
          <mxGeometry width="30" height="30" as="geometry">
            <mxRectangle width="30" height="30" as="alternateBounds" />
          </mxGeometry>
        </mxCell>
        <mxCell id="YNfdYXe8y2e8E_s2l16x-374" value="название" style="shape=partialRectangle;connectable=0;fillColor=none;top=0;left=0;bottom=0;right=0;align=left;spacingLeft=6;overflow=hidden;" parent="YNfdYXe8y2e8E_s2l16x-372" vertex="1">
          <mxGeometry x="30" width="150" height="30" as="geometry">
            <mxRectangle width="150" height="30" as="alternateBounds" />
          </mxGeometry>
        </mxCell>
        <mxCell id="YNfdYXe8y2e8E_s2l16x-375" value="Тип занятия" style="shape=table;startSize=30;container=1;collapsible=1;childLayout=tableLayout;fixedRows=1;rowLines=0;fontStyle=1;align=center;resizeLast=1;" parent="1" vertex="1">
          <mxGeometry x="180" y="779" width="180" height="120" as="geometry" />
        </mxCell>
        <mxCell id="YNfdYXe8y2e8E_s2l16x-376" value="" style="shape=tableRow;horizontal=0;startSize=0;swimlaneHead=0;swimlaneBody=0;fillColor=none;collapsible=0;dropTarget=0;points=[[0,0.5],[1,0.5]];portConstraint=eastwest;top=0;left=0;right=0;bottom=1;" parent="YNfdYXe8y2e8E_s2l16x-375" vertex="1">
          <mxGeometry y="30" width="180" height="30" as="geometry" />
        </mxCell>
        <mxCell id="YNfdYXe8y2e8E_s2l16x-377" value="PK" style="shape=partialRectangle;connectable=0;fillColor=none;top=0;left=0;bottom=0;right=0;fontStyle=1;overflow=hidden;" parent="YNfdYXe8y2e8E_s2l16x-376" vertex="1">
          <mxGeometry width="30" height="30" as="geometry">
            <mxRectangle width="30" height="30" as="alternateBounds" />
          </mxGeometry>
        </mxCell>
        <mxCell id="YNfdYXe8y2e8E_s2l16x-378" value="ID" style="shape=partialRectangle;connectable=0;fillColor=none;top=0;left=0;bottom=0;right=0;align=left;spacingLeft=6;fontStyle=5;overflow=hidden;" parent="YNfdYXe8y2e8E_s2l16x-376" vertex="1">
          <mxGeometry x="30" width="150" height="30" as="geometry">
            <mxRectangle width="150" height="30" as="alternateBounds" />
          </mxGeometry>
        </mxCell>
        <mxCell id="YNfdYXe8y2e8E_s2l16x-379" value="" style="shape=tableRow;horizontal=0;startSize=0;swimlaneHead=0;swimlaneBody=0;fillColor=none;collapsible=0;dropTarget=0;points=[[0,0.5],[1,0.5]];portConstraint=eastwest;top=0;left=0;right=0;bottom=0;" parent="YNfdYXe8y2e8E_s2l16x-375" vertex="1">
          <mxGeometry y="60" width="180" height="30" as="geometry" />
        </mxCell>
        <mxCell id="YNfdYXe8y2e8E_s2l16x-380" value="" style="shape=partialRectangle;connectable=0;fillColor=none;top=0;left=0;bottom=0;right=0;editable=1;overflow=hidden;" parent="YNfdYXe8y2e8E_s2l16x-379" vertex="1">
          <mxGeometry width="30" height="30" as="geometry">
            <mxRectangle width="30" height="30" as="alternateBounds" />
          </mxGeometry>
        </mxCell>
        <mxCell id="YNfdYXe8y2e8E_s2l16x-381" value="время одного занятия" style="shape=partialRectangle;connectable=0;fillColor=none;top=0;left=0;bottom=0;right=0;align=left;spacingLeft=6;overflow=hidden;" parent="YNfdYXe8y2e8E_s2l16x-379" vertex="1">
          <mxGeometry x="30" width="150" height="30" as="geometry">
            <mxRectangle width="150" height="30" as="alternateBounds" />
          </mxGeometry>
        </mxCell>
        <mxCell id="YNfdYXe8y2e8E_s2l16x-382" value="" style="shape=tableRow;horizontal=0;startSize=0;swimlaneHead=0;swimlaneBody=0;fillColor=none;collapsible=0;dropTarget=0;points=[[0,0.5],[1,0.5]];portConstraint=eastwest;top=0;left=0;right=0;bottom=0;" parent="YNfdYXe8y2e8E_s2l16x-375" vertex="1">
          <mxGeometry y="90" width="180" height="30" as="geometry" />
        </mxCell>
        <mxCell id="YNfdYXe8y2e8E_s2l16x-383" value="" style="shape=partialRectangle;connectable=0;fillColor=none;top=0;left=0;bottom=0;right=0;editable=1;overflow=hidden;" parent="YNfdYXe8y2e8E_s2l16x-382" vertex="1">
          <mxGeometry width="30" height="30" as="geometry">
            <mxRectangle width="30" height="30" as="alternateBounds" />
          </mxGeometry>
        </mxCell>
        <mxCell id="YNfdYXe8y2e8E_s2l16x-384" value="название" style="shape=partialRectangle;connectable=0;fillColor=none;top=0;left=0;bottom=0;right=0;align=left;spacingLeft=6;overflow=hidden;" parent="YNfdYXe8y2e8E_s2l16x-382" vertex="1">
          <mxGeometry x="30" width="150" height="30" as="geometry">
            <mxRectangle width="150" height="30" as="alternateBounds" />
          </mxGeometry>
        </mxCell>
        <mxCell id="YNfdYXe8y2e8E_s2l16x-385" value="" style="endArrow=oval;html=1;rounded=0;dashed=1;exitX=1;exitY=0.5;exitDx=0;exitDy=0;entryX=0;entryY=0.5;entryDx=0;entryDy=0;endFill=1;" parent="1" source="YNfdYXe8y2e8E_s2l16x-379" target="YNfdYXe8y2e8E_s2l16x-359" edge="1">
          <mxGeometry relative="1" as="geometry">
            <mxPoint x="373" y="750" as="sourcePoint" />
            <mxPoint x="533" y="750" as="targetPoint" />
            <Array as="points">
              <mxPoint x="413" y="854" />
              <mxPoint x="413" y="775" />
            </Array>
          </mxGeometry>
        </mxCell>
        <mxCell id="YNfdYXe8y2e8E_s2l16x-387" value="N" style="resizable=0;html=1;align=right;verticalAlign=bottom;" parent="YNfdYXe8y2e8E_s2l16x-385" connectable="0" vertex="1">
          <mxGeometry x="1" relative="1" as="geometry">
            <mxPoint x="-10" as="offset" />
          </mxGeometry>
        </mxCell>
        <mxCell id="YNfdYXe8y2e8E_s2l16x-388" value="" style="endArrow=oval;html=1;rounded=0;dashed=1;exitX=1;exitY=0.5;exitDx=0;exitDy=0;entryX=0;entryY=0.5;entryDx=0;entryDy=0;endFill=1;" parent="1" source="YNfdYXe8y2e8E_s2l16x-369" target="YNfdYXe8y2e8E_s2l16x-353" edge="1">
          <mxGeometry relative="1" as="geometry">
            <mxPoint x="373" y="750" as="sourcePoint" />
            <mxPoint x="533" y="750" as="targetPoint" />
            <Array as="points">
              <mxPoint x="413" y="655" />
              <mxPoint x="413" y="715" />
            </Array>
          </mxGeometry>
        </mxCell>
        <mxCell id="YNfdYXe8y2e8E_s2l16x-389" value="N" style="resizable=0;html=1;align=right;verticalAlign=bottom;" parent="YNfdYXe8y2e8E_s2l16x-388" connectable="0" vertex="1">
          <mxGeometry x="1" relative="1" as="geometry">
            <mxPoint x="-10" as="offset" />
          </mxGeometry>
        </mxCell>
        <mxCell id="YNfdYXe8y2e8E_s2l16x-390" value="" style="endArrow=oval;html=1;rounded=0;dashed=1;entryX=1;entryY=0.5;entryDx=0;entryDy=0;exitX=0;exitY=0.5;exitDx=0;exitDy=0;endFill=1;" parent="1" source="YNfdYXe8y2e8E_s2l16x-335" target="YNfdYXe8y2e8E_s2l16x-356" edge="1">
          <mxGeometry relative="1" as="geometry">
            <mxPoint x="543" y="780" as="sourcePoint" />
            <mxPoint x="703" y="780" as="targetPoint" />
          </mxGeometry>
        </mxCell>
        <mxCell id="YNfdYXe8y2e8E_s2l16x-391" value="N" style="resizable=0;html=1;align=right;verticalAlign=bottom;" parent="YNfdYXe8y2e8E_s2l16x-390" connectable="0" vertex="1">
          <mxGeometry x="1" relative="1" as="geometry">
            <mxPoint x="20" as="offset" />
          </mxGeometry>
        </mxCell>
        <mxCell id="YNfdYXe8y2e8E_s2l16x-392" value="Группа" style="shape=table;startSize=30;container=1;collapsible=1;childLayout=tableLayout;fixedRows=1;rowLines=0;fontStyle=1;align=center;resizeLast=1;" parent="1" vertex="1">
          <mxGeometry x="990" y="440" width="180" height="150" as="geometry" />
        </mxCell>
        <mxCell id="YNfdYXe8y2e8E_s2l16x-393" value="" style="shape=tableRow;horizontal=0;startSize=0;swimlaneHead=0;swimlaneBody=0;fillColor=none;collapsible=0;dropTarget=0;points=[[0,0.5],[1,0.5]];portConstraint=eastwest;top=0;left=0;right=0;bottom=1;" parent="YNfdYXe8y2e8E_s2l16x-392" vertex="1">
          <mxGeometry y="30" width="180" height="30" as="geometry" />
        </mxCell>
        <mxCell id="YNfdYXe8y2e8E_s2l16x-394" value="PK" style="shape=partialRectangle;connectable=0;fillColor=none;top=0;left=0;bottom=0;right=0;fontStyle=1;overflow=hidden;" parent="YNfdYXe8y2e8E_s2l16x-393" vertex="1">
          <mxGeometry width="30" height="30" as="geometry">
            <mxRectangle width="30" height="30" as="alternateBounds" />
          </mxGeometry>
        </mxCell>
        <mxCell id="YNfdYXe8y2e8E_s2l16x-395" value="ID" style="shape=partialRectangle;connectable=0;fillColor=none;top=0;left=0;bottom=0;right=0;align=left;spacingLeft=6;fontStyle=5;overflow=hidden;" parent="YNfdYXe8y2e8E_s2l16x-393" vertex="1">
          <mxGeometry x="30" width="150" height="30" as="geometry">
            <mxRectangle width="150" height="30" as="alternateBounds" />
          </mxGeometry>
        </mxCell>
        <mxCell id="YNfdYXe8y2e8E_s2l16x-396" value="" style="shape=tableRow;horizontal=0;startSize=0;swimlaneHead=0;swimlaneBody=0;fillColor=none;collapsible=0;dropTarget=0;points=[[0,0.5],[1,0.5]];portConstraint=eastwest;top=0;left=0;right=0;bottom=0;" parent="YNfdYXe8y2e8E_s2l16x-392" vertex="1">
          <mxGeometry y="60" width="180" height="30" as="geometry" />
        </mxCell>
        <mxCell id="YNfdYXe8y2e8E_s2l16x-397" value="" style="shape=partialRectangle;connectable=0;fillColor=none;top=0;left=0;bottom=0;right=0;editable=1;overflow=hidden;" parent="YNfdYXe8y2e8E_s2l16x-396" vertex="1">
          <mxGeometry width="30" height="30" as="geometry">
            <mxRectangle width="30" height="30" as="alternateBounds" />
          </mxGeometry>
        </mxCell>
        <mxCell id="YNfdYXe8y2e8E_s2l16x-398" value="название" style="shape=partialRectangle;connectable=0;fillColor=none;top=0;left=0;bottom=0;right=0;align=left;spacingLeft=6;overflow=hidden;" parent="YNfdYXe8y2e8E_s2l16x-396" vertex="1">
          <mxGeometry x="30" width="150" height="30" as="geometry">
            <mxRectangle width="150" height="30" as="alternateBounds" />
          </mxGeometry>
        </mxCell>
        <mxCell id="YNfdYXe8y2e8E_s2l16x-399" value="" style="shape=tableRow;horizontal=0;startSize=0;swimlaneHead=0;swimlaneBody=0;fillColor=none;collapsible=0;dropTarget=0;points=[[0,0.5],[1,0.5]];portConstraint=eastwest;top=0;left=0;right=0;bottom=0;" parent="YNfdYXe8y2e8E_s2l16x-392" vertex="1">
          <mxGeometry y="90" width="180" height="30" as="geometry" />
        </mxCell>
        <mxCell id="YNfdYXe8y2e8E_s2l16x-400" value="(FK)" style="shape=partialRectangle;connectable=0;fillColor=none;top=0;left=0;bottom=0;right=0;editable=1;overflow=hidden;" parent="YNfdYXe8y2e8E_s2l16x-399" vertex="1">
          <mxGeometry width="30" height="30" as="geometry">
            <mxRectangle width="30" height="30" as="alternateBounds" />
          </mxGeometry>
        </mxCell>
        <mxCell id="YNfdYXe8y2e8E_s2l16x-401" value="ID_Староста" style="shape=partialRectangle;connectable=0;fillColor=none;top=0;left=0;bottom=0;right=0;align=left;spacingLeft=6;overflow=hidden;" parent="YNfdYXe8y2e8E_s2l16x-399" vertex="1">
          <mxGeometry x="30" width="150" height="30" as="geometry">
            <mxRectangle width="150" height="30" as="alternateBounds" />
          </mxGeometry>
        </mxCell>
        <mxCell id="YNfdYXe8y2e8E_s2l16x-402" value="" style="shape=tableRow;horizontal=0;startSize=0;swimlaneHead=0;swimlaneBody=0;fillColor=none;collapsible=0;dropTarget=0;points=[[0,0.5],[1,0.5]];portConstraint=eastwest;top=0;left=0;right=0;bottom=0;" parent="YNfdYXe8y2e8E_s2l16x-392" vertex="1">
          <mxGeometry y="120" width="180" height="30" as="geometry" />
        </mxCell>
        <mxCell id="YNfdYXe8y2e8E_s2l16x-403" value="(FK)" style="shape=partialRectangle;connectable=0;fillColor=none;top=0;left=0;bottom=0;right=0;editable=1;overflow=hidden;" parent="YNfdYXe8y2e8E_s2l16x-402" vertex="1">
          <mxGeometry width="30" height="30" as="geometry">
            <mxRectangle width="30" height="30" as="alternateBounds" />
          </mxGeometry>
        </mxCell>
        <mxCell id="YNfdYXe8y2e8E_s2l16x-404" value="ID_УчебныйПлан" style="shape=partialRectangle;connectable=0;fillColor=none;top=0;left=0;bottom=0;right=0;align=left;spacingLeft=6;overflow=hidden;" parent="YNfdYXe8y2e8E_s2l16x-402" vertex="1">
          <mxGeometry x="30" width="150" height="30" as="geometry">
            <mxRectangle width="150" height="30" as="alternateBounds" />
          </mxGeometry>
        </mxCell>
        <mxCell id="YNfdYXe8y2e8E_s2l16x-405" value="Студент" style="shape=table;startSize=30;container=1;collapsible=1;childLayout=tableLayout;fixedRows=1;rowLines=0;fontStyle=1;align=center;resizeLast=1;" parent="1" vertex="1">
          <mxGeometry x="990" y="130" width="180" height="240" as="geometry" />
        </mxCell>
        <mxCell id="YNfdYXe8y2e8E_s2l16x-406" value="" style="shape=tableRow;horizontal=0;startSize=0;swimlaneHead=0;swimlaneBody=0;fillColor=none;collapsible=0;dropTarget=0;points=[[0,0.5],[1,0.5]];portConstraint=eastwest;top=0;left=0;right=0;bottom=1;" parent="YNfdYXe8y2e8E_s2l16x-405" vertex="1">
          <mxGeometry y="30" width="180" height="30" as="geometry" />
        </mxCell>
        <mxCell id="YNfdYXe8y2e8E_s2l16x-407" value="PK" style="shape=partialRectangle;connectable=0;fillColor=none;top=0;left=0;bottom=0;right=0;fontStyle=1;overflow=hidden;" parent="YNfdYXe8y2e8E_s2l16x-406" vertex="1">
          <mxGeometry width="30" height="30" as="geometry">
            <mxRectangle width="30" height="30" as="alternateBounds" />
          </mxGeometry>
        </mxCell>
        <mxCell id="YNfdYXe8y2e8E_s2l16x-408" value="ID" style="shape=partialRectangle;connectable=0;fillColor=none;top=0;left=0;bottom=0;right=0;align=left;spacingLeft=6;fontStyle=5;overflow=hidden;" parent="YNfdYXe8y2e8E_s2l16x-406" vertex="1">
          <mxGeometry x="30" width="150" height="30" as="geometry">
            <mxRectangle width="150" height="30" as="alternateBounds" />
          </mxGeometry>
        </mxCell>
        <mxCell id="YNfdYXe8y2e8E_s2l16x-409" value="" style="shape=tableRow;horizontal=0;startSize=0;swimlaneHead=0;swimlaneBody=0;fillColor=none;collapsible=0;dropTarget=0;points=[[0,0.5],[1,0.5]];portConstraint=eastwest;top=0;left=0;right=0;bottom=0;" parent="YNfdYXe8y2e8E_s2l16x-405" vertex="1">
          <mxGeometry y="60" width="180" height="30" as="geometry" />
        </mxCell>
        <mxCell id="YNfdYXe8y2e8E_s2l16x-410" value="" style="shape=partialRectangle;connectable=0;fillColor=none;top=0;left=0;bottom=0;right=0;editable=1;overflow=hidden;" parent="YNfdYXe8y2e8E_s2l16x-409" vertex="1">
          <mxGeometry width="30" height="30" as="geometry">
            <mxRectangle width="30" height="30" as="alternateBounds" />
          </mxGeometry>
        </mxCell>
        <mxCell id="YNfdYXe8y2e8E_s2l16x-411" value="ФИО" style="shape=partialRectangle;connectable=0;fillColor=none;top=0;left=0;bottom=0;right=0;align=left;spacingLeft=6;overflow=hidden;" parent="YNfdYXe8y2e8E_s2l16x-409" vertex="1">
          <mxGeometry x="30" width="150" height="30" as="geometry">
            <mxRectangle width="150" height="30" as="alternateBounds" />
          </mxGeometry>
        </mxCell>
        <mxCell id="YNfdYXe8y2e8E_s2l16x-412" value="" style="shape=tableRow;horizontal=0;startSize=0;swimlaneHead=0;swimlaneBody=0;fillColor=none;collapsible=0;dropTarget=0;points=[[0,0.5],[1,0.5]];portConstraint=eastwest;top=0;left=0;right=0;bottom=0;" parent="YNfdYXe8y2e8E_s2l16x-405" vertex="1">
          <mxGeometry y="90" width="180" height="30" as="geometry" />
        </mxCell>
        <mxCell id="YNfdYXe8y2e8E_s2l16x-413" value="" style="shape=partialRectangle;connectable=0;fillColor=none;top=0;left=0;bottom=0;right=0;editable=1;overflow=hidden;" parent="YNfdYXe8y2e8E_s2l16x-412" vertex="1">
          <mxGeometry width="30" height="30" as="geometry">
            <mxRectangle width="30" height="30" as="alternateBounds" />
          </mxGeometry>
        </mxCell>
        <mxCell id="YNfdYXe8y2e8E_s2l16x-414" value="Год рождения" style="shape=partialRectangle;connectable=0;fillColor=none;top=0;left=0;bottom=0;right=0;align=left;spacingLeft=6;overflow=hidden;" parent="YNfdYXe8y2e8E_s2l16x-412" vertex="1">
          <mxGeometry x="30" width="150" height="30" as="geometry">
            <mxRectangle width="150" height="30" as="alternateBounds" />
          </mxGeometry>
        </mxCell>
        <mxCell id="YNfdYXe8y2e8E_s2l16x-415" value="" style="shape=tableRow;horizontal=0;startSize=0;swimlaneHead=0;swimlaneBody=0;fillColor=none;collapsible=0;dropTarget=0;points=[[0,0.5],[1,0.5]];portConstraint=eastwest;top=0;left=0;right=0;bottom=0;" parent="YNfdYXe8y2e8E_s2l16x-405" vertex="1">
          <mxGeometry y="120" width="180" height="30" as="geometry" />
        </mxCell>
        <mxCell id="YNfdYXe8y2e8E_s2l16x-416" value="" style="shape=partialRectangle;connectable=0;fillColor=none;top=0;left=0;bottom=0;right=0;editable=1;overflow=hidden;" parent="YNfdYXe8y2e8E_s2l16x-415" vertex="1">
          <mxGeometry width="30" height="30" as="geometry">
            <mxRectangle width="30" height="30" as="alternateBounds" />
          </mxGeometry>
        </mxCell>
        <mxCell id="YNfdYXe8y2e8E_s2l16x-417" value="Адрес" style="shape=partialRectangle;connectable=0;fillColor=none;top=0;left=0;bottom=0;right=0;align=left;spacingLeft=6;overflow=hidden;" parent="YNfdYXe8y2e8E_s2l16x-415" vertex="1">
          <mxGeometry x="30" width="150" height="30" as="geometry">
            <mxRectangle width="150" height="30" as="alternateBounds" />
          </mxGeometry>
        </mxCell>
        <mxCell id="YNfdYXe8y2e8E_s2l16x-418" style="shape=tableRow;horizontal=0;startSize=0;swimlaneHead=0;swimlaneBody=0;fillColor=none;collapsible=0;dropTarget=0;points=[[0,0.5],[1,0.5]];portConstraint=eastwest;top=0;left=0;right=0;bottom=0;" parent="YNfdYXe8y2e8E_s2l16x-405" vertex="1">
          <mxGeometry y="150" width="180" height="30" as="geometry" />
        </mxCell>
        <mxCell id="YNfdYXe8y2e8E_s2l16x-419" style="shape=partialRectangle;connectable=0;fillColor=none;top=0;left=0;bottom=0;right=0;editable=1;overflow=hidden;" parent="YNfdYXe8y2e8E_s2l16x-418" vertex="1">
          <mxGeometry width="30" height="30" as="geometry">
            <mxRectangle width="30" height="30" as="alternateBounds" />
          </mxGeometry>
        </mxCell>
        <mxCell id="YNfdYXe8y2e8E_s2l16x-420" value="Год поступления" style="shape=partialRectangle;connectable=0;fillColor=none;top=0;left=0;bottom=0;right=0;align=left;spacingLeft=6;overflow=hidden;" parent="YNfdYXe8y2e8E_s2l16x-418" vertex="1">
          <mxGeometry x="30" width="150" height="30" as="geometry">
            <mxRectangle width="150" height="30" as="alternateBounds" />
          </mxGeometry>
        </mxCell>
        <mxCell id="0wWQEDHhfA5lO0qD6Fws-1" style="shape=tableRow;horizontal=0;startSize=0;swimlaneHead=0;swimlaneBody=0;fillColor=none;collapsible=0;dropTarget=0;points=[[0,0.5],[1,0.5]];portConstraint=eastwest;top=0;left=0;right=0;bottom=0;" vertex="1" parent="YNfdYXe8y2e8E_s2l16x-405">
          <mxGeometry y="180" width="180" height="30" as="geometry" />
        </mxCell>
        <mxCell id="0wWQEDHhfA5lO0qD6Fws-2" style="shape=partialRectangle;connectable=0;fillColor=none;top=0;left=0;bottom=0;right=0;editable=1;overflow=hidden;" vertex="1" parent="0wWQEDHhfA5lO0qD6Fws-1">
          <mxGeometry width="30" height="30" as="geometry">
            <mxRectangle width="30" height="30" as="alternateBounds" />
          </mxGeometry>
        </mxCell>
        <mxCell id="0wWQEDHhfA5lO0qD6Fws-3" value="Номер телефона" style="shape=partialRectangle;connectable=0;fillColor=none;top=0;left=0;bottom=0;right=0;align=left;spacingLeft=6;overflow=hidden;" vertex="1" parent="0wWQEDHhfA5lO0qD6Fws-1">
          <mxGeometry x="30" width="150" height="30" as="geometry">
            <mxRectangle width="150" height="30" as="alternateBounds" />
          </mxGeometry>
        </mxCell>
        <mxCell id="YNfdYXe8y2e8E_s2l16x-421" style="shape=tableRow;horizontal=0;startSize=0;swimlaneHead=0;swimlaneBody=0;fillColor=none;collapsible=0;dropTarget=0;points=[[0,0.5],[1,0.5]];portConstraint=eastwest;top=0;left=0;right=0;bottom=0;" parent="YNfdYXe8y2e8E_s2l16x-405" vertex="1">
          <mxGeometry y="210" width="180" height="30" as="geometry" />
        </mxCell>
        <mxCell id="YNfdYXe8y2e8E_s2l16x-422" value="(FK)" style="shape=partialRectangle;connectable=0;fillColor=none;top=0;left=0;bottom=0;right=0;editable=1;overflow=hidden;" parent="YNfdYXe8y2e8E_s2l16x-421" vertex="1">
          <mxGeometry width="30" height="30" as="geometry">
            <mxRectangle width="30" height="30" as="alternateBounds" />
          </mxGeometry>
        </mxCell>
        <mxCell id="YNfdYXe8y2e8E_s2l16x-423" value="ID_Группа" style="shape=partialRectangle;connectable=0;fillColor=none;top=0;left=0;bottom=0;right=0;align=left;spacingLeft=6;overflow=hidden;" parent="YNfdYXe8y2e8E_s2l16x-421" vertex="1">
          <mxGeometry x="30" width="150" height="30" as="geometry">
            <mxRectangle width="150" height="30" as="alternateBounds" />
          </mxGeometry>
        </mxCell>
        <mxCell id="YNfdYXe8y2e8E_s2l16x-424" value="Учитель" style="shape=table;startSize=30;container=1;collapsible=1;childLayout=tableLayout;fixedRows=1;rowLines=0;fontStyle=1;align=center;resizeLast=1;" parent="1" vertex="1">
          <mxGeometry x="453" y="470" width="180" height="90" as="geometry" />
        </mxCell>
        <mxCell id="YNfdYXe8y2e8E_s2l16x-425" value="" style="shape=tableRow;horizontal=0;startSize=0;swimlaneHead=0;swimlaneBody=0;fillColor=none;collapsible=0;dropTarget=0;points=[[0,0.5],[1,0.5]];portConstraint=eastwest;top=0;left=0;right=0;bottom=1;" parent="YNfdYXe8y2e8E_s2l16x-424" vertex="1">
          <mxGeometry y="30" width="180" height="30" as="geometry" />
        </mxCell>
        <mxCell id="YNfdYXe8y2e8E_s2l16x-426" value="PK" style="shape=partialRectangle;connectable=0;fillColor=none;top=0;left=0;bottom=0;right=0;fontStyle=1;overflow=hidden;" parent="YNfdYXe8y2e8E_s2l16x-425" vertex="1">
          <mxGeometry width="30" height="30" as="geometry">
            <mxRectangle width="30" height="30" as="alternateBounds" />
          </mxGeometry>
        </mxCell>
        <mxCell id="YNfdYXe8y2e8E_s2l16x-427" value="ID" style="shape=partialRectangle;connectable=0;fillColor=none;top=0;left=0;bottom=0;right=0;align=left;spacingLeft=6;fontStyle=5;overflow=hidden;" parent="YNfdYXe8y2e8E_s2l16x-425" vertex="1">
          <mxGeometry x="30" width="150" height="30" as="geometry">
            <mxRectangle width="150" height="30" as="alternateBounds" />
          </mxGeometry>
        </mxCell>
        <mxCell id="YNfdYXe8y2e8E_s2l16x-428" value="" style="shape=tableRow;horizontal=0;startSize=0;swimlaneHead=0;swimlaneBody=0;fillColor=none;collapsible=0;dropTarget=0;points=[[0,0.5],[1,0.5]];portConstraint=eastwest;top=0;left=0;right=0;bottom=0;" parent="YNfdYXe8y2e8E_s2l16x-424" vertex="1">
          <mxGeometry y="60" width="180" height="30" as="geometry" />
        </mxCell>
        <mxCell id="YNfdYXe8y2e8E_s2l16x-429" value="" style="shape=partialRectangle;connectable=0;fillColor=none;top=0;left=0;bottom=0;right=0;editable=1;overflow=hidden;" parent="YNfdYXe8y2e8E_s2l16x-428" vertex="1">
          <mxGeometry width="30" height="30" as="geometry">
            <mxRectangle width="30" height="30" as="alternateBounds" />
          </mxGeometry>
        </mxCell>
        <mxCell id="YNfdYXe8y2e8E_s2l16x-430" value="ФИО" style="shape=partialRectangle;connectable=0;fillColor=none;top=0;left=0;bottom=0;right=0;align=left;spacingLeft=6;overflow=hidden;" parent="YNfdYXe8y2e8E_s2l16x-428" vertex="1">
          <mxGeometry x="30" width="150" height="30" as="geometry">
            <mxRectangle width="150" height="30" as="alternateBounds" />
          </mxGeometry>
        </mxCell>
        <mxCell id="YNfdYXe8y2e8E_s2l16x-431" value="Занятие" style="shape=table;startSize=30;container=1;collapsible=1;childLayout=tableLayout;fixedRows=1;rowLines=0;fontStyle=1;align=center;resizeLast=1;" parent="1" vertex="1">
          <mxGeometry x="453" y="190" width="180" height="180" as="geometry" />
        </mxCell>
        <mxCell id="YNfdYXe8y2e8E_s2l16x-432" value="" style="shape=tableRow;horizontal=0;startSize=0;swimlaneHead=0;swimlaneBody=0;fillColor=none;collapsible=0;dropTarget=0;points=[[0,0.5],[1,0.5]];portConstraint=eastwest;top=0;left=0;right=0;bottom=1;" parent="YNfdYXe8y2e8E_s2l16x-431" vertex="1">
          <mxGeometry y="30" width="180" height="30" as="geometry" />
        </mxCell>
        <mxCell id="YNfdYXe8y2e8E_s2l16x-433" value="PK" style="shape=partialRectangle;connectable=0;fillColor=none;top=0;left=0;bottom=0;right=0;fontStyle=1;overflow=hidden;" parent="YNfdYXe8y2e8E_s2l16x-432" vertex="1">
          <mxGeometry width="30" height="30" as="geometry">
            <mxRectangle width="30" height="30" as="alternateBounds" />
          </mxGeometry>
        </mxCell>
        <mxCell id="YNfdYXe8y2e8E_s2l16x-434" value="ID" style="shape=partialRectangle;connectable=0;fillColor=none;top=0;left=0;bottom=0;right=0;align=left;spacingLeft=6;fontStyle=5;overflow=hidden;" parent="YNfdYXe8y2e8E_s2l16x-432" vertex="1">
          <mxGeometry x="30" width="150" height="30" as="geometry">
            <mxRectangle width="150" height="30" as="alternateBounds" />
          </mxGeometry>
        </mxCell>
        <mxCell id="YNfdYXe8y2e8E_s2l16x-435" value="" style="shape=tableRow;horizontal=0;startSize=0;swimlaneHead=0;swimlaneBody=0;fillColor=none;collapsible=0;dropTarget=0;points=[[0,0.5],[1,0.5]];portConstraint=eastwest;top=0;left=0;right=0;bottom=0;" parent="YNfdYXe8y2e8E_s2l16x-431" vertex="1">
          <mxGeometry y="60" width="180" height="30" as="geometry" />
        </mxCell>
        <mxCell id="YNfdYXe8y2e8E_s2l16x-436" value="" style="shape=partialRectangle;connectable=0;fillColor=none;top=0;left=0;bottom=0;right=0;editable=1;overflow=hidden;" parent="YNfdYXe8y2e8E_s2l16x-435" vertex="1">
          <mxGeometry width="30" height="30" as="geometry">
            <mxRectangle width="30" height="30" as="alternateBounds" />
          </mxGeometry>
        </mxCell>
        <mxCell id="YNfdYXe8y2e8E_s2l16x-437" value="дата" style="shape=partialRectangle;connectable=0;fillColor=none;top=0;left=0;bottom=0;right=0;align=left;spacingLeft=6;overflow=hidden;" parent="YNfdYXe8y2e8E_s2l16x-435" vertex="1">
          <mxGeometry x="30" width="150" height="30" as="geometry">
            <mxRectangle width="150" height="30" as="alternateBounds" />
          </mxGeometry>
        </mxCell>
        <mxCell id="YNfdYXe8y2e8E_s2l16x-438" style="shape=tableRow;horizontal=0;startSize=0;swimlaneHead=0;swimlaneBody=0;fillColor=none;collapsible=0;dropTarget=0;points=[[0,0.5],[1,0.5]];portConstraint=eastwest;top=0;left=0;right=0;bottom=0;" parent="YNfdYXe8y2e8E_s2l16x-431" vertex="1">
          <mxGeometry y="90" width="180" height="30" as="geometry" />
        </mxCell>
        <mxCell id="YNfdYXe8y2e8E_s2l16x-439" style="shape=partialRectangle;connectable=0;fillColor=none;top=0;left=0;bottom=0;right=0;editable=1;overflow=hidden;" parent="YNfdYXe8y2e8E_s2l16x-438" vertex="1">
          <mxGeometry width="30" height="30" as="geometry">
            <mxRectangle width="30" height="30" as="alternateBounds" />
          </mxGeometry>
        </mxCell>
        <mxCell id="YNfdYXe8y2e8E_s2l16x-440" value="номер занятия" style="shape=partialRectangle;connectable=0;fillColor=none;top=0;left=0;bottom=0;right=0;align=left;spacingLeft=6;overflow=hidden;" parent="YNfdYXe8y2e8E_s2l16x-438" vertex="1">
          <mxGeometry x="30" width="150" height="30" as="geometry">
            <mxRectangle width="150" height="30" as="alternateBounds" />
          </mxGeometry>
        </mxCell>
        <mxCell id="YNfdYXe8y2e8E_s2l16x-441" style="shape=tableRow;horizontal=0;startSize=0;swimlaneHead=0;swimlaneBody=0;fillColor=none;collapsible=0;dropTarget=0;points=[[0,0.5],[1,0.5]];portConstraint=eastwest;top=0;left=0;right=0;bottom=0;" parent="YNfdYXe8y2e8E_s2l16x-431" vertex="1">
          <mxGeometry y="120" width="180" height="30" as="geometry" />
        </mxCell>
        <mxCell id="YNfdYXe8y2e8E_s2l16x-442" style="shape=partialRectangle;connectable=0;fillColor=none;top=0;left=0;bottom=0;right=0;editable=1;overflow=hidden;" parent="YNfdYXe8y2e8E_s2l16x-441" vertex="1">
          <mxGeometry width="30" height="30" as="geometry">
            <mxRectangle width="30" height="30" as="alternateBounds" />
          </mxGeometry>
        </mxCell>
        <mxCell id="YNfdYXe8y2e8E_s2l16x-443" value="тема" style="shape=partialRectangle;connectable=0;fillColor=none;top=0;left=0;bottom=0;right=0;align=left;spacingLeft=6;overflow=hidden;" parent="YNfdYXe8y2e8E_s2l16x-441" vertex="1">
          <mxGeometry x="30" width="150" height="30" as="geometry">
            <mxRectangle width="150" height="30" as="alternateBounds" />
          </mxGeometry>
        </mxCell>
        <mxCell id="cFUmLs0JXjZlDeXT97Vb-1" style="shape=tableRow;horizontal=0;startSize=0;swimlaneHead=0;swimlaneBody=0;fillColor=none;collapsible=0;dropTarget=0;points=[[0,0.5],[1,0.5]];portConstraint=eastwest;top=0;left=0;right=0;bottom=0;" parent="YNfdYXe8y2e8E_s2l16x-431" vertex="1">
          <mxGeometry y="150" width="180" height="30" as="geometry" />
        </mxCell>
        <mxCell id="cFUmLs0JXjZlDeXT97Vb-2" value="(FK)" style="shape=partialRectangle;connectable=0;fillColor=none;top=0;left=0;bottom=0;right=0;editable=1;overflow=hidden;" parent="cFUmLs0JXjZlDeXT97Vb-1" vertex="1">
          <mxGeometry width="30" height="30" as="geometry">
            <mxRectangle width="30" height="30" as="alternateBounds" />
          </mxGeometry>
        </mxCell>
        <mxCell id="cFUmLs0JXjZlDeXT97Vb-3" value="ID_УчетЗанятий" style="shape=partialRectangle;connectable=0;fillColor=none;top=0;left=0;bottom=0;right=0;align=left;spacingLeft=6;overflow=hidden;" parent="cFUmLs0JXjZlDeXT97Vb-1" vertex="1">
          <mxGeometry x="30" width="150" height="30" as="geometry">
            <mxRectangle width="150" height="30" as="alternateBounds" />
          </mxGeometry>
        </mxCell>
        <mxCell id="YNfdYXe8y2e8E_s2l16x-444" value="Присутствие на занятии" style="shape=table;startSize=30;container=1;collapsible=1;childLayout=tableLayout;fixedRows=1;rowLines=0;fontStyle=1;align=center;resizeLast=1;" parent="1" vertex="1">
          <mxGeometry x="720" y="190" width="180" height="150" as="geometry" />
        </mxCell>
        <mxCell id="YNfdYXe8y2e8E_s2l16x-445" value="" style="shape=tableRow;horizontal=0;startSize=0;swimlaneHead=0;swimlaneBody=0;fillColor=none;collapsible=0;dropTarget=0;points=[[0,0.5],[1,0.5]];portConstraint=eastwest;top=0;left=0;right=0;bottom=1;" parent="YNfdYXe8y2e8E_s2l16x-444" vertex="1">
          <mxGeometry y="30" width="180" height="30" as="geometry" />
        </mxCell>
        <mxCell id="YNfdYXe8y2e8E_s2l16x-446" value="(PF)" style="shape=partialRectangle;connectable=0;fillColor=none;top=0;left=0;bottom=0;right=0;fontStyle=1;overflow=hidden;" parent="YNfdYXe8y2e8E_s2l16x-445" vertex="1">
          <mxGeometry width="30" height="30" as="geometry">
            <mxRectangle width="30" height="30" as="alternateBounds" />
          </mxGeometry>
        </mxCell>
        <mxCell id="YNfdYXe8y2e8E_s2l16x-447" value="ID_Занятие" style="shape=partialRectangle;connectable=0;fillColor=none;top=0;left=0;bottom=0;right=0;align=left;spacingLeft=6;fontStyle=5;overflow=hidden;" parent="YNfdYXe8y2e8E_s2l16x-445" vertex="1">
          <mxGeometry x="30" width="150" height="30" as="geometry">
            <mxRectangle width="150" height="30" as="alternateBounds" />
          </mxGeometry>
        </mxCell>
        <mxCell id="YNfdYXe8y2e8E_s2l16x-448" style="shape=tableRow;horizontal=0;startSize=0;swimlaneHead=0;swimlaneBody=0;fillColor=none;collapsible=0;dropTarget=0;points=[[0,0.5],[1,0.5]];portConstraint=eastwest;top=0;left=0;right=0;bottom=1;" parent="YNfdYXe8y2e8E_s2l16x-444" vertex="1">
          <mxGeometry y="60" width="180" height="30" as="geometry" />
        </mxCell>
        <mxCell id="YNfdYXe8y2e8E_s2l16x-449" value="(PF)" style="shape=partialRectangle;connectable=0;fillColor=none;top=0;left=0;bottom=0;right=0;fontStyle=1;overflow=hidden;" parent="YNfdYXe8y2e8E_s2l16x-448" vertex="1">
          <mxGeometry width="30" height="30" as="geometry">
            <mxRectangle width="30" height="30" as="alternateBounds" />
          </mxGeometry>
        </mxCell>
        <mxCell id="YNfdYXe8y2e8E_s2l16x-450" value="ID_Студент" style="shape=partialRectangle;connectable=0;fillColor=none;top=0;left=0;bottom=0;right=0;align=left;spacingLeft=6;fontStyle=5;overflow=hidden;" parent="YNfdYXe8y2e8E_s2l16x-448" vertex="1">
          <mxGeometry x="30" width="150" height="30" as="geometry">
            <mxRectangle width="150" height="30" as="alternateBounds" />
          </mxGeometry>
        </mxCell>
        <mxCell id="YNfdYXe8y2e8E_s2l16x-451" value="" style="shape=tableRow;horizontal=0;startSize=0;swimlaneHead=0;swimlaneBody=0;fillColor=none;collapsible=0;dropTarget=0;points=[[0,0.5],[1,0.5]];portConstraint=eastwest;top=0;left=0;right=0;bottom=0;" parent="YNfdYXe8y2e8E_s2l16x-444" vertex="1">
          <mxGeometry y="90" width="180" height="30" as="geometry" />
        </mxCell>
        <mxCell id="YNfdYXe8y2e8E_s2l16x-452" value="" style="shape=partialRectangle;connectable=0;fillColor=none;top=0;left=0;bottom=0;right=0;editable=1;overflow=hidden;" parent="YNfdYXe8y2e8E_s2l16x-451" vertex="1">
          <mxGeometry width="30" height="30" as="geometry">
            <mxRectangle width="30" height="30" as="alternateBounds" />
          </mxGeometry>
        </mxCell>
        <mxCell id="YNfdYXe8y2e8E_s2l16x-453" value="По уважительной" style="shape=partialRectangle;connectable=0;fillColor=none;top=0;left=0;bottom=0;right=0;align=left;spacingLeft=6;overflow=hidden;" parent="YNfdYXe8y2e8E_s2l16x-451" vertex="1">
          <mxGeometry x="30" width="150" height="30" as="geometry">
            <mxRectangle width="150" height="30" as="alternateBounds" />
          </mxGeometry>
        </mxCell>
        <mxCell id="YNfdYXe8y2e8E_s2l16x-454" value="" style="shape=tableRow;horizontal=0;startSize=0;swimlaneHead=0;swimlaneBody=0;fillColor=none;collapsible=0;dropTarget=0;points=[[0,0.5],[1,0.5]];portConstraint=eastwest;top=0;left=0;right=0;bottom=0;" parent="YNfdYXe8y2e8E_s2l16x-444" vertex="1">
          <mxGeometry y="120" width="180" height="30" as="geometry" />
        </mxCell>
        <mxCell id="YNfdYXe8y2e8E_s2l16x-455" value="" style="shape=partialRectangle;connectable=0;fillColor=none;top=0;left=0;bottom=0;right=0;editable=1;overflow=hidden;" parent="YNfdYXe8y2e8E_s2l16x-454" vertex="1">
          <mxGeometry width="30" height="30" as="geometry">
            <mxRectangle width="30" height="30" as="alternateBounds" />
          </mxGeometry>
        </mxCell>
        <mxCell id="YNfdYXe8y2e8E_s2l16x-456" value="По неуважительной" style="shape=partialRectangle;connectable=0;fillColor=none;top=0;left=0;bottom=0;right=0;align=left;spacingLeft=6;overflow=hidden;" parent="YNfdYXe8y2e8E_s2l16x-454" vertex="1">
          <mxGeometry x="30" width="150" height="30" as="geometry">
            <mxRectangle width="150" height="30" as="alternateBounds" />
          </mxGeometry>
        </mxCell>
        <mxCell id="YNfdYXe8y2e8E_s2l16x-457" value="Учёт занятий" style="shape=table;startSize=30;container=1;collapsible=1;childLayout=tableLayout;fixedRows=1;rowLines=0;fontStyle=1;align=center;resizeLast=1;" parent="1" vertex="1">
          <mxGeometry x="720" y="440" width="180" height="150" as="geometry" />
        </mxCell>
        <mxCell id="YNfdYXe8y2e8E_s2l16x-458" value="" style="shape=tableRow;horizontal=0;startSize=0;swimlaneHead=0;swimlaneBody=0;fillColor=none;collapsible=0;dropTarget=0;points=[[0,0.5],[1,0.5]];portConstraint=eastwest;top=0;left=0;right=0;bottom=1;" parent="YNfdYXe8y2e8E_s2l16x-457" vertex="1">
          <mxGeometry y="30" width="180" height="30" as="geometry" />
        </mxCell>
        <mxCell id="YNfdYXe8y2e8E_s2l16x-459" value="PK" style="shape=partialRectangle;connectable=0;fillColor=none;top=0;left=0;bottom=0;right=0;fontStyle=1;overflow=hidden;" parent="YNfdYXe8y2e8E_s2l16x-458" vertex="1">
          <mxGeometry width="30" height="30" as="geometry">
            <mxRectangle width="30" height="30" as="alternateBounds" />
          </mxGeometry>
        </mxCell>
        <mxCell id="YNfdYXe8y2e8E_s2l16x-460" value="ID" style="shape=partialRectangle;connectable=0;fillColor=none;top=0;left=0;bottom=0;right=0;align=left;spacingLeft=6;fontStyle=5;overflow=hidden;" parent="YNfdYXe8y2e8E_s2l16x-458" vertex="1">
          <mxGeometry x="30" width="150" height="30" as="geometry">
            <mxRectangle width="150" height="30" as="alternateBounds" />
          </mxGeometry>
        </mxCell>
        <mxCell id="YNfdYXe8y2e8E_s2l16x-461" value="" style="shape=tableRow;horizontal=0;startSize=0;swimlaneHead=0;swimlaneBody=0;fillColor=none;collapsible=0;dropTarget=0;points=[[0,0.5],[1,0.5]];portConstraint=eastwest;top=0;left=0;right=0;bottom=0;" parent="YNfdYXe8y2e8E_s2l16x-457" vertex="1">
          <mxGeometry y="60" width="180" height="30" as="geometry" />
        </mxCell>
        <mxCell id="YNfdYXe8y2e8E_s2l16x-462" value="(FK)" style="shape=partialRectangle;connectable=0;fillColor=none;top=0;left=0;bottom=0;right=0;editable=1;overflow=hidden;" parent="YNfdYXe8y2e8E_s2l16x-461" vertex="1">
          <mxGeometry width="30" height="30" as="geometry">
            <mxRectangle width="30" height="30" as="alternateBounds" />
          </mxGeometry>
        </mxCell>
        <mxCell id="YNfdYXe8y2e8E_s2l16x-463" value="ID_Учитель" style="shape=partialRectangle;connectable=0;fillColor=none;top=0;left=0;bottom=0;right=0;align=left;spacingLeft=6;overflow=hidden;" parent="YNfdYXe8y2e8E_s2l16x-461" vertex="1">
          <mxGeometry x="30" width="150" height="30" as="geometry">
            <mxRectangle width="150" height="30" as="alternateBounds" />
          </mxGeometry>
        </mxCell>
        <mxCell id="YNfdYXe8y2e8E_s2l16x-464" value="" style="shape=tableRow;horizontal=0;startSize=0;swimlaneHead=0;swimlaneBody=0;fillColor=none;collapsible=0;dropTarget=0;points=[[0,0.5],[1,0.5]];portConstraint=eastwest;top=0;left=0;right=0;bottom=0;" parent="YNfdYXe8y2e8E_s2l16x-457" vertex="1">
          <mxGeometry y="90" width="180" height="30" as="geometry" />
        </mxCell>
        <mxCell id="YNfdYXe8y2e8E_s2l16x-465" value="(FK)" style="shape=partialRectangle;connectable=0;fillColor=none;top=0;left=0;bottom=0;right=0;editable=1;overflow=hidden;" parent="YNfdYXe8y2e8E_s2l16x-464" vertex="1">
          <mxGeometry width="30" height="30" as="geometry">
            <mxRectangle width="30" height="30" as="alternateBounds" />
          </mxGeometry>
        </mxCell>
        <mxCell id="YNfdYXe8y2e8E_s2l16x-466" value="ID_УчПланПредмета" style="shape=partialRectangle;connectable=0;fillColor=none;top=0;left=0;bottom=0;right=0;align=left;spacingLeft=6;overflow=hidden;" parent="YNfdYXe8y2e8E_s2l16x-464" vertex="1">
          <mxGeometry x="30" width="150" height="30" as="geometry">
            <mxRectangle width="150" height="30" as="alternateBounds" />
          </mxGeometry>
        </mxCell>
        <mxCell id="YNfdYXe8y2e8E_s2l16x-467" value="" style="shape=tableRow;horizontal=0;startSize=0;swimlaneHead=0;swimlaneBody=0;fillColor=none;collapsible=0;dropTarget=0;points=[[0,0.5],[1,0.5]];portConstraint=eastwest;top=0;left=0;right=0;bottom=0;" parent="YNfdYXe8y2e8E_s2l16x-457" vertex="1">
          <mxGeometry y="120" width="180" height="30" as="geometry" />
        </mxCell>
        <mxCell id="YNfdYXe8y2e8E_s2l16x-468" value="(FK)" style="shape=partialRectangle;connectable=0;fillColor=none;top=0;left=0;bottom=0;right=0;editable=1;overflow=hidden;" parent="YNfdYXe8y2e8E_s2l16x-467" vertex="1">
          <mxGeometry width="30" height="30" as="geometry">
            <mxRectangle width="30" height="30" as="alternateBounds" />
          </mxGeometry>
        </mxCell>
        <mxCell id="YNfdYXe8y2e8E_s2l16x-469" value="ID_Группы" style="shape=partialRectangle;connectable=0;fillColor=none;top=0;left=0;bottom=0;right=0;align=left;spacingLeft=6;overflow=hidden;" parent="YNfdYXe8y2e8E_s2l16x-467" vertex="1">
          <mxGeometry x="30" width="150" height="30" as="geometry">
            <mxRectangle width="150" height="30" as="alternateBounds" />
          </mxGeometry>
        </mxCell>
        <mxCell id="YNfdYXe8y2e8E_s2l16x-470" value="" style="endArrow=oval;html=1;rounded=0;dashed=1;fontSize=16;exitX=1;exitY=0.5;exitDx=0;exitDy=0;endFill=1;entryX=0;entryY=0.5;entryDx=0;entryDy=0;" parent="1" source="YNfdYXe8y2e8E_s2l16x-425" target="YNfdYXe8y2e8E_s2l16x-461" edge="1">
          <mxGeometry relative="1" as="geometry">
            <mxPoint x="643" y="510" as="sourcePoint" />
            <mxPoint x="723" y="515" as="targetPoint" />
          </mxGeometry>
        </mxCell>
        <mxCell id="YNfdYXe8y2e8E_s2l16x-471" value="N" style="resizable=0;html=1;align=right;verticalAlign=bottom;fontSize=13;" parent="YNfdYXe8y2e8E_s2l16x-470" connectable="0" vertex="1">
          <mxGeometry x="1" relative="1" as="geometry">
            <mxPoint x="-10" as="offset" />
          </mxGeometry>
        </mxCell>
        <mxCell id="YNfdYXe8y2e8E_s2l16x-472" value="" style="endArrow=oval;html=1;rounded=0;dashed=1;fontSize=16;entryX=0.478;entryY=1.133;entryDx=0;entryDy=0;entryPerimeter=0;endFill=1;exitX=0.5;exitY=0;exitDx=0;exitDy=0;" parent="1" source="YNfdYXe8y2e8E_s2l16x-349" target="YNfdYXe8y2e8E_s2l16x-467" edge="1">
          <mxGeometry relative="1" as="geometry">
            <mxPoint x="806" y="640" as="sourcePoint" />
            <mxPoint x="733" y="525" as="targetPoint" />
            <Array as="points">
              <mxPoint x="543" y="610" />
              <mxPoint x="806" y="610" />
            </Array>
          </mxGeometry>
        </mxCell>
        <mxCell id="YNfdYXe8y2e8E_s2l16x-473" value="N" style="resizable=0;html=1;align=right;verticalAlign=bottom;fontSize=13;" parent="YNfdYXe8y2e8E_s2l16x-472" connectable="0" vertex="1">
          <mxGeometry x="1" relative="1" as="geometry">
            <mxPoint x="19" y="21" as="offset" />
          </mxGeometry>
        </mxCell>
        <mxCell id="YNfdYXe8y2e8E_s2l16x-474" value="" style="endArrow=oval;html=1;rounded=0;dashed=1;fontSize=16;exitX=0;exitY=0.5;exitDx=0;exitDy=0;entryX=1;entryY=0.5;entryDx=0;entryDy=0;endFill=1;" parent="1" source="YNfdYXe8y2e8E_s2l16x-396" target="YNfdYXe8y2e8E_s2l16x-461" edge="1">
          <mxGeometry relative="1" as="geometry">
            <mxPoint x="653" y="535" as="sourcePoint" />
            <mxPoint x="743" y="535" as="targetPoint" />
          </mxGeometry>
        </mxCell>
        <mxCell id="YNfdYXe8y2e8E_s2l16x-475" value="N" style="resizable=0;html=1;align=right;verticalAlign=bottom;fontSize=13;" parent="YNfdYXe8y2e8E_s2l16x-474" connectable="0" vertex="1">
          <mxGeometry x="1" relative="1" as="geometry">
            <mxPoint x="23" as="offset" />
          </mxGeometry>
        </mxCell>
        <mxCell id="YNfdYXe8y2e8E_s2l16x-476" value="" style="endArrow=oval;html=1;rounded=0;dashed=1;fontSize=13;exitX=0.5;exitY=0;exitDx=0;exitDy=0;endFill=1;" parent="1" source="YNfdYXe8y2e8E_s2l16x-457" edge="1">
          <mxGeometry relative="1" as="geometry">
            <mxPoint x="653" y="380" as="sourcePoint" />
            <mxPoint x="543" y="370" as="targetPoint" />
            <Array as="points">
              <mxPoint x="810" y="400" />
              <mxPoint x="543" y="400" />
            </Array>
          </mxGeometry>
        </mxCell>
        <mxCell id="YNfdYXe8y2e8E_s2l16x-477" value="N" style="resizable=0;html=1;align=right;verticalAlign=bottom;fontSize=13;" parent="YNfdYXe8y2e8E_s2l16x-476" connectable="0" vertex="1">
          <mxGeometry x="1" relative="1" as="geometry">
            <mxPoint x="-7" y="17" as="offset" />
          </mxGeometry>
        </mxCell>
        <mxCell id="YNfdYXe8y2e8E_s2l16x-478" value="" style="endArrow=oval;html=1;rounded=0;dashed=1;fontSize=13;exitX=1;exitY=0.5;exitDx=0;exitDy=0;entryX=0.517;entryY=1;entryDx=0;entryDy=0;entryPerimeter=0;endFill=1;" parent="1" source="YNfdYXe8y2e8E_s2l16x-329" target="YNfdYXe8y2e8E_s2l16x-402" edge="1">
          <mxGeometry relative="1" as="geometry">
            <mxPoint x="943" y="630" as="sourcePoint" />
            <mxPoint x="1103" y="630" as="targetPoint" />
            <Array as="points">
              <mxPoint x="953" y="685" />
              <mxPoint x="953" y="640" />
              <mxPoint x="1083" y="640" />
            </Array>
          </mxGeometry>
        </mxCell>
        <mxCell id="YNfdYXe8y2e8E_s2l16x-479" value="N" style="resizable=0;html=1;align=right;verticalAlign=bottom;fontSize=13;" parent="YNfdYXe8y2e8E_s2l16x-478" connectable="0" vertex="1">
          <mxGeometry x="1" relative="1" as="geometry">
            <mxPoint x="12" y="20" as="offset" />
          </mxGeometry>
        </mxCell>
        <mxCell id="YNfdYXe8y2e8E_s2l16x-480" value="" style="endArrow=oval;html=1;rounded=0;dashed=1;fontSize=13;endFill=1;exitX=0.583;exitY=0.967;exitDx=0;exitDy=0;exitPerimeter=0;" parent="1" edge="1" source="YNfdYXe8y2e8E_s2l16x-421">
          <mxGeometry relative="1" as="geometry">
            <mxPoint x="1113" y="370.0000000000002" as="sourcePoint" />
            <mxPoint x="1095" y="440" as="targetPoint" />
            <Array as="points" />
          </mxGeometry>
        </mxCell>
        <mxCell id="YNfdYXe8y2e8E_s2l16x-481" value="1" style="resizable=0;html=1;align=right;verticalAlign=bottom;fontSize=13;" parent="YNfdYXe8y2e8E_s2l16x-480" connectable="0" vertex="1">
          <mxGeometry x="1" relative="1" as="geometry">
            <mxPoint x="12" y="-11" as="offset" />
          </mxGeometry>
        </mxCell>
        <mxCell id="YNfdYXe8y2e8E_s2l16x-482" value="" style="endArrow=oval;html=1;rounded=0;dashed=1;fontSize=16;entryX=0.267;entryY=1.033;entryDx=0;entryDy=0;endFill=1;entryPerimeter=0;" parent="1" target="YNfdYXe8y2e8E_s2l16x-421" edge="1">
          <mxGeometry relative="1" as="geometry">
            <mxPoint x="1038" y="440" as="sourcePoint" />
            <mxPoint x="910" y="525" as="targetPoint" />
          </mxGeometry>
        </mxCell>
        <mxCell id="YNfdYXe8y2e8E_s2l16x-483" value="N" style="resizable=0;html=1;align=right;verticalAlign=bottom;fontSize=13;" parent="YNfdYXe8y2e8E_s2l16x-482" connectable="0" vertex="1">
          <mxGeometry x="1" relative="1" as="geometry">
            <mxPoint x="19" y="25" as="offset" />
          </mxGeometry>
        </mxCell>
        <mxCell id="YNfdYXe8y2e8E_s2l16x-484" value="N" style="edgeStyle=orthogonalEdgeStyle;rounded=0;orthogonalLoop=1;jettySize=auto;html=1;exitX=0;exitY=0.5;exitDx=0;exitDy=0;entryX=1;entryY=0.5;entryDx=0;entryDy=0;fontSize=13;startArrow=none;startFill=0;endArrow=oval;endFill=1;" parent="1" source="YNfdYXe8y2e8E_s2l16x-412" target="YNfdYXe8y2e8E_s2l16x-448" edge="1">
          <mxGeometry x="0.7111" y="-15" relative="1" as="geometry">
            <mxPoint as="offset" />
          </mxGeometry>
        </mxCell>
        <mxCell id="YNfdYXe8y2e8E_s2l16x-485" value="N" style="edgeStyle=orthogonalEdgeStyle;rounded=0;orthogonalLoop=1;jettySize=auto;html=1;exitX=1;exitY=0.5;exitDx=0;exitDy=0;entryX=0;entryY=0.5;entryDx=0;entryDy=0;fontSize=13;startArrow=none;startFill=0;endArrow=oval;endFill=1;" parent="1" source="YNfdYXe8y2e8E_s2l16x-435" target="YNfdYXe8y2e8E_s2l16x-448" edge="1">
          <mxGeometry x="0.6092" y="15" relative="1" as="geometry">
            <mxPoint as="offset" />
          </mxGeometry>
        </mxCell>
      </root>
    </mxGraphModel>
  </diagram>
</mxfile>
